<svg xmlns="http://www.w3.org/2000/svg" version="1.1" xmlns:xlink="http://www.w3.org/1999/xlink" width="48" height="58"><svg id="SvgjsSvg1005" xmlns="http://www.w3.org/2000/svg" xmlns:xlink="http://www.w3.org/1999/xlink" viewBox="0 0 48 58"><defs><style>.cls-1{mask:url(#mask);}.cls-2{fill:#fff;}.cls-3,.cls-4{fill:#2ca58e;}.cls-4{stroke:#2ca58e;stroke-width:.5px;}</style><mask id="SvgjsMask1004" x="9.5693" y="-.4926" width="38" height="59" maskUnits="userSpaceOnUse"><g id="SvgjsG1003"><rect class="cls-2" x="9.5693" y="-.4926" width="38" height="59"></rect><path d="M21.2932,24.5155h8.3391c1.8898,0,3.4346-.6644,4.6195-1.978,1.1998-1.3288,1.7848-2.9444,1.7848-4.8621s-.6-3.4577-1.7848-4.8167c-1.1999-1.3438-2.7447-2.0233-4.6195-2.0233H12.7141c-.7799,0-1.1699.3926-1.1699,1.1778v43.139c0,.7852.39,1.1778,1.1699,1.1778h6.4193c.6599,0,1.0049-.3926,1.0049-1.1778v-21.411h9.509c2.2197,0,4.3195-.4077,6.2993-1.223,1.9648-.8154,3.7046-1.9478,5.2044-3.3974,1.4998-1.4495,2.6847-3.1407,3.5396-5.0734.8549-1.9327,1.2899-4.0467,1.2899-6.3418s-.435-4.3335-1.2899-6.2964c-.8699-1.9629-2.0398-3.6541-3.5396-5.0734-1.4998-1.4194-3.2396-2.5518-5.2044-3.3521-1.9798-.8154-4.0646-1.223-6.2993-1.223H12.7291c-.7799,0-1.1699.3322-1.1699,1.0117v3.186c0,.4983-.165.755-.4949.755s-.495-.2567-.495-.755v-3.186c0-.6644.195-1.223.585-1.6307.3899-.4228.9149-.6342,1.5748-.6342h16.8882c2.3847,0,4.6345.453,6.7342,1.3439,2.1148.8909,3.9446,2.1139,5.5344,3.6541,1.5749,1.5401,2.8347,3.3521,3.7346,5.4509.9149,2.0988,1.3799,4.3486,1.3799,6.7494s-.45,4.6507-1.3649,6.7495c-.9149,2.0988-2.1598,3.9107-3.7346,5.4509-1.5748,1.5401-3.4196,2.7481-5.5194,3.6087-2.0997.8607-4.3495,1.2986-6.7342,1.2986h-8.3091v20.3238c0,1.5704-.72,2.3555-2.1748,2.3555h-6.4193c-1.4398,0-2.1598-.7851-2.1598-2.3555V12.0735c0-.7851.195-1.4042.585-1.8421.3899-.453.9149-.6644,1.5898-.6644h16.9182c1.1098,0,2.1297.2265,3.0446.6644.9149.453,1.7098,1.0419,2.3698,1.7667.6599.7247,1.1998,1.6005,1.5898,2.5971.3899,1.0116.5849,2.0384.5849,3.1104,0,2.1895-.7049,4.0467-2.1297,5.5868-1.4099,1.5402-3.2397,2.3102-5.4594,2.3102h-9.509"></path></g></mask></defs><path class="cls-4" d="M32.4914,5.3266l-.0009-.0008c-1.6118-1.5614-3.4675-2.8018-5.611-3.7048-2.1315-.9043-4.4145-1.3636-6.8316-1.3636H3.1598c-.7176,0-1.3128.2323-1.7571.713-.4427.4638-.6527,1.0888-.6527,1.8019v3.186c0,.269.0432.5151.1643.7009.1329.2037.3392.304.5806.304s.4477-.1003.5806-.304c.1212-.1858.1644-.4319.1644-.7009v-3.186c0-.2915.082-.4647.2056-.5712.1309-.1128.3538-.1904.7142-.1904h16.8587l.03.0151h.0594c2.2032,0,4.2556.4017,6.2041,1.2042l.0009.0004c1.9358.7884,3.6493,1.9038,5.1269,3.3021,1.474,1.3948,2.6251,3.0578,3.4826,4.9922.8408,1.9309,1.2687,3.9351,1.2687,6.196,0,2.2627-.4286,4.3419-1.2684,6.2407-.8419,1.9031-2.0081,3.5676-3.4848,4.9947-1.4765,1.427-3.1895,2.5424-5.126,3.3461-1.9485.8024-4.0157,1.2041-6.204,1.2041h-9.7589v21.661c0,.3613-.0801.5872-.1946.7204-.1085.1262-.2812.2074-.5603.2074H3.1748c-.351,0-.5684-.0881-.7-.2206-.1319-.1329-.2198-.3527-.2198-.7072V12.0282c0-.3544.0879-.5743.2198-.7071.1316-.1325.349-.2206.7-.2206h16.9181c1.8059,0,3.2816.6508,4.432,1.9387,1.1447,1.3133,1.7223,2.7948,1.7223,4.6513,0,1.8618-.5658,3.416-1.7203,4.6945h0c-1.1342,1.2576-2.6099,1.8956-4.4339,1.8956h-.0026l-8.4131.0879.1316-9.8908h0v-.0033c0-.0134.0001-.0268.0001-.0404.0001-.0806.0003-.1634-.0043-.2373-.0052-.0857-.0177-.1847-.057-.277-.043-.101-.1159-.1887-.2266-.2454-.1025-.0525-.219-.069-.3371-.069-.2339,0-.4552.0591-.6161.221-.1605.1616-.2188.3835-.2188.6179v11.4084h9.7589c2.2841,0,4.1826-.7954,5.6434-2.3909,1.4695-1.5887,2.1958-3.5073,2.1958-5.7561,0-1.1036-.2009-2.1608-.6017-3.2004l-.0004-.0011c-.4004-1.0232-.956-1.9256-1.6378-2.6744-.6823-.7493-1.5028-1.3565-2.4437-1.8223h0l-.003-.0015c-.9508-.4551-2.0079-.6889-3.1526-.6889H3.1898c-.7327,0-1.332.2327-1.7779.7497-.4422.4976-.6468,1.1831-.6468,2.0068v43.0636c0,.8186.1872,1.4792.6057,1.9356.4223.4605,1.0398.6699,1.8041.6699h6.4193c.7711,0,1.3924-.209,1.8167-.6694.4208-.4566.608-1.1175.608-1.9361v-20.0738h8.0591c2.4161,0,4.6981-.4438,6.8291-1.3172,2.1288-.8726,4.001-2.0982,5.5994-3.6614,1.5985-1.5633,2.8616-3.4022,3.789-5.5297.9295-2.1324,1.3856-4.4164,1.3856-6.8494s-.4714-4.7173-1.4002-6.8484c-.913-2.1292-2.1917-3.9681-3.7894-5.5306Z"></path><path class="cls-3" d="M21.2932,24.5155h8.3391c1.8898,0,3.4346-.6644,4.6195-1.978,1.1998-1.3288,1.7848-2.9444,1.7848-4.8621s-.6-3.4577-1.7848-4.8167c-1.1999-1.3438-2.7447-2.0233-4.6195-2.0233H12.7141c-.7799,0-1.1699.3926-1.1699,1.1778v43.139c0,.7852.39,1.1778,1.1699,1.1778h6.4193c.6599,0,1.0049-.3926,1.0049-1.1778v-21.411h9.509c2.2197,0,4.3195-.4077,6.2993-1.223,1.9648-.8154,3.7046-1.9478,5.2044-3.3974,1.4998-1.4495,2.6847-3.1407,3.5396-5.0734.8549-1.9327,1.2899-4.0467,1.2899-6.3418s-.435-4.3335-1.2899-6.2964c-.8699-1.9629-2.0398-3.6541-3.5396-5.0734-1.4998-1.4194-3.2396-2.5518-5.2044-3.3521-1.9798-.8154-4.0646-1.223-6.2993-1.223H12.7291c-.7799,0-1.1699.3322-1.1699,1.0117v3.186c0,.4983-.165.755-.4949.755s-.495-.2567-.495-.755v-3.186c0-.6644.195-1.223.585-1.6307.3899-.4228.9149-.6342,1.5748-.6342h16.8882c2.3847,0,4.6345.453,6.7342,1.3439,2.1148.8909,3.9446,2.1139,5.5344,3.6541,1.5749,1.5401,2.8347,3.3521,3.7346,5.4509.9149,2.0988,1.3799,4.3486,1.3799,6.7494s-.45,4.6507-1.3649,6.7495c-.9149,2.0988-2.1598,3.9107-3.7346,5.4509-1.5748,1.5401-3.4196,2.7481-5.5194,3.6087-2.0997.8607-4.3495,1.2986-6.7342,1.2986h-8.3091v20.3238c0,1.5704-.72,2.3555-2.1748,2.3555h-6.4193c-1.4398,0-2.1598-.7851-2.1598-2.3555V12.0735c0-.7851.195-1.4042.585-1.8421.3899-.453.9149-.6644,1.5898-.6644h16.9182c1.1098,0,2.1297.2265,3.0446.6644.9149.453,1.7098,1.0419,2.3698,1.7667.6599.7247,1.1998,1.6005,1.5898,2.5971.3899,1.0116.5849,2.0384.5849,3.1104,0,2.1895-.7049,4.0467-2.1297,5.5868-1.4099,1.5402-3.2397,2.3102-5.4594,2.3102h-9.509"></path><g class="cls-1"><path class="cls-3" d="M34.2518,22.5375l-.3711-.3351-.0002.0002.3713.3349ZM34.2518,12.8587l.3769-.3286-.004-.0044-.3729.333ZM20.1383,33.7412v-.5h-.5v.5h.5ZM35.9466,32.5182l.1904.4623.0012-.0005-.1916-.4618ZM44.6906,11.4092l.4584-.1997-.0013-.0029-.4571.2026ZM35.9466,2.9837l-.1904.4623.0018.0007.1886-.4631ZM11.1543,1.1416l.3614.3457.0061-.0067-.3675-.339ZM36.3515,1.8512l-.1953.4603.0012.0005.1941-.4608ZM41.8859,5.5053l.3496-.3575-.0017-.0016-.3479.3591ZM45.6205,10.9562l-.4595.197.0012.0028.4583-.1998ZM21.3382,34.8133v-.5h-.5v.5h.5ZM11.1693,10.2314l.3734.3326.0055-.0064-.3789-.3262ZM32.7219,10.2314l.2219-.4481-.006-.0029-.2159.451ZM36.6815,14.5952l.4665-.1799-.0009-.0023-.4656.1822ZM35.1367,23.2924l-.3671-.3395-.0017.0019.3688.3376ZM21.2932,25.0155h8.3391v-1h-8.3391v1ZM29.6323,25.0155c2.0213,0,3.7046-.7172,4.9907-2.1432l-.7425-.6697c-1.0836,1.2013-2.49,1.8129-4.2482,1.8129v1ZM34.6229,22.8726c1.2905-1.4293,1.9137-3.1678,1.9137-5.1972h-1c0,1.8059-.5468,3.2987-1.6559,4.527l.7422.6702ZM36.5366,17.6754c0-2.0387-.6439-3.6955-1.908-5.1453l-.7537.6572c1.1056,1.2681,1.6617,2.6916,1.6617,4.4881h1ZM34.6247,12.5257c-1.2984-1.4543-2.9809-2.1903-4.9924-2.1903v1c1.738,0,3.1452.6229,4.2465,1.8563l.7459-.666ZM29.6323,10.3354H12.7141v1h16.9182v-1ZM12.7141,10.3354c-.4679,0-.9104.1182-1.2321.4421-.3211.3232-.4378.7668-.4378,1.2357h1c0-.3164.0784-.4617.1472-.531.0683-.0687.2107-.1468.5227-.1468v-1ZM11.0442,12.0132v43.139h1V12.0132h-1ZM11.0442,55.1522c0,.4688.1167.9125.4378,1.2357.3217.3239.7642.4421,1.2321.4421v-1c-.312,0-.4544-.0781-.5227-.1468-.0688-.0694-.1472-.2146-.1472-.531h-1ZM12.7141,56.83h6.4193v-1h-6.4193v1ZM19.1334,56.83c.4316,0,.84-.1322,1.1291-.4685.2772-.3225.3758-.7541.3758-1.2093h-1c0,.33-.0739.4873-.1341.5574-.0484.0562-.1424.1204-.3708.1204v1ZM20.6383,55.1522v-21.411h-1v21.411h1ZM20.1383,34.2412h9.509v-1h-9.509v1ZM29.6473,34.2412c2.2826,0,4.4473-.4195,6.4897-1.2607l-.3808-.9246c-1.9172.7895-3.9521,1.1853-6.1089,1.1853v1ZM36.1382,32.98c2.0209-.8387,3.814-2.0052,5.3603-3.4997l-.695-.719c-1.4534,1.4046-3.1399,2.503-5.0486,3.2951l.3833.9236ZM41.4985,29.4803c1.5461-1.4943,2.7683-3.2388,3.6494-5.2306l-.9145-.4046c-.8288,1.8736-1.9763,3.5114-3.4299,4.9162l.695.719ZM45.1479,24.2497c.885-2.0008,1.3326-4.1841,1.3326-6.5441h-1c0,2.2303-.4223,4.2748-1.2471,6.1395l.9145.4046ZM46.4805,17.7056c0-2.3629-.4488-4.4693-1.3315-6.4961l-.9168.3993c.8271,1.8991,1.2483,3.8695,1.2483,6.0968h1ZM45.1477,11.2066c-.8947-2.0191-2.1018-3.766-3.653-5.234l-.6874.7263c1.4485,1.3707,2.5812,3.0061,3.4262,4.9129l.9142-.4052ZM41.4947,5.9726c-1.5444-1.4615-3.3366-2.628-5.3595-3.452l-.3772.9261c1.9066.7766,3.594,1.875,5.0493,3.2522l.6874-.7263ZM36.137,2.5214c-2.0422-.8411-4.1919-1.2607-6.4897-1.2607v1c2.1716,0,4.1915.3957,6.1089,1.1854l.3808-.9246ZM29.6473,1.2606H12.7291v1h16.9182v-1ZM12.7291,1.2606c-.449,0-.8807.0939-1.2038.3722-.3375.2908-.4661.7031-.4661,1.1394h1c0-.2432.0665-.3367.1189-.3818.0669-.0576.2201-.1298.551-.1298v-1ZM11.0592,2.7723v3.186h1v-3.186h-1ZM11.0592,5.9583c0,.0985-.0083.1707-.0193.2212-.0054.0247-.0111.0422-.0156.0538-.0046.0115-.0076.0162-.0076.0161.0018-.0027.0132-.0173.0353-.0286.0204-.0106.0293-.0076.0123-.0076v1c.3177,0,.6067-.1364.79-.4174.1599-.2451.2049-.5486.2049-.8375h-1ZM11.0643,6.2133c-.017,0-.0082-.003.0123.0076.0221.0114.0335.026.0352.0286.0001,0-.003-.0046-.0075-.0161-.0045-.0116-.0102-.0291-.0156-.0538-.0111-.0505-.0194-.1227-.0194-.2212h-1c0,.2889.0451.5924.205.8375.1833.281.4723.4174.79.4174v-1ZM11.0693,5.9583v-3.186h-1v3.186h1ZM11.0693,2.7723c0-.5653.1639-.9899.4463-1.2851l-.7226-.6912c-.4976.5202-.7237,1.2129-.7237,1.9763h1ZM11.5218,1.4806c.281-.3046.6644-.4732,1.2073-.4732V.0074c-.7769,0-1.4434.2542-1.9424.7952l.7351.678ZM12.7291,1.0074h16.8882V.0074H12.7291v1ZM29.6173,1.0074c2.3198,0,4.503.4403,6.5389,1.3041l.3906-.9206C34.3833.473,32.0669.0074,29.6173.0074v1ZM36.1574,2.312c2.0571.8666,3.8349,2.055,5.3806,3.5524l.6958-.7182c-1.6339-1.5829-3.5157-2.8406-5.6882-3.7557l-.3882.9216ZM41.5363,5.8628c1.5289,1.4951,2.751,3.2528,3.6247,5.2904l.9191-.394c-.9262-2.16-2.2237-4.0262-3.8446-5.6114l-.6992.7149ZM45.1622,11.156c.8865,2.0337,1.3382,4.2153,1.3382,6.5496h1c0-2.4672-.4783-4.7853-1.4215-6.9492l-.9167.3996ZM46.5004,17.7056c0,2.3366-.4376,4.5179-1.3232,6.5497l.9167.3996c.9441-2.1659,1.4065-4.4842,1.4065-6.9493h-1ZM45.1772,24.2553c-.8899,2.0415-2.0985,3.7994-3.6259,5.2932l.6992.7149c1.6223-1.5865,2.9035-3.4524,3.8434-5.6085l-.9167-.3996ZM41.5513,29.5485c-1.5276,1.494-3.3177,2.6667-5.3594,3.5036l.3793.9253c2.1578-.8845,4.0573-2.1276,5.6793-3.714l-.6992-.7149ZM36.1919,33.0521c-2.0374.8351-4.2225,1.2612-6.5446,1.2612v1c2.4473,0,4.7617-.4497,6.9239-1.3359l-.3793-.9253ZM29.6473,34.3133h-8.3091v1h8.3091v-1ZM20.8382,34.8133v20.3238h1v-20.3238h-1ZM20.8382,55.1371c0,.7184-.1656,1.1632-.4095,1.4278-.2367.2568-.6252.4277-1.2653.4277v1c.8148,0,1.5137-.2216,2.0006-.75.4798-.5205.6742-1.2535.6742-2.1055h-1ZM19.1634,56.9926h-6.4193v1h6.4193v-1ZM12.7441,56.9926c-.6312,0-1.0159-.17-1.2513-.4268-.2429-.2649-.4085-.7103-.4085-1.4287h-1c0,.852.1944,1.5843.6714,2.1046.4846.5284,1.1797.7509,1.9884.7509v-1ZM11.0843,55.1371V12.0735h-1v43.0636h1ZM11.0843,12.0735c0-.7061.1749-1.1913.4584-1.5096l-.7468-.665c-.4965.5575-.7116,1.3105-.7116,2.1746h1ZM11.5482,10.5576c.2778-.3227.653-.4906,1.2109-.4906v-1c-.792,0-1.4667.2549-1.9688.8382l.7579.6524ZM12.7591,10.067h16.9182v-1H12.7591v1ZM29.6773,10.067c1.0403,0,1.9858.212,2.8288.6154l.4317-.902c-.9868-.4723-2.0811-.7134-3.2605-.7134v1ZM32.5001,10.6795c.8629.4272,1.6066.9795,2.2219,1.6552l.7394-.6733c-.7046-.7738-1.5507-1.3993-2.5176-1.8781l-.4437.8962ZM34.722,12.3347c.6162.6768,1.1248,1.4994,1.4939,2.4427l.9312-.3644c-.4108-1.0499-.9821-1.9788-1.6857-2.7516l-.7394.6733ZM36.215,14.775c.3684.9558.5514,1.9217.5514,2.9306h1c0-1.1351-.2069-2.2227-.6184-3.2903l-.933.3597ZM36.7664,17.7056c0,2.0704-.6619,3.8044-1.9968,5.2473l.7341.6791c1.5148-1.6375,2.2627-3.6179,2.2627-5.9264h-1ZM34.7679,22.9548c-1.308,1.4288-3.0001,2.1478-5.0906,2.1478v1c2.3489,0,4.3164-.8211,5.8282-2.4726l-.7376-.6752ZM29.6773,25.1026h-9.509v1h9.509v-1Z"></path></g></svg><style>@media (prefers-color-scheme: light) { :root { filter: none; } }
@media (prefers-color-scheme: dark) { :root { filter: none; } }
</style></svg>